<svg width="382" height="200" viewBox="0 0 382 200" fill="none" xmlns="http://www.w3.org/2000/svg">
<g clip-path="url(#clip0_496_1409)">
<path d="M22.6771 119.277C22.6771 119.277 15.5494 119.649 10.2949 122.28C5.04037 124.905 8.7936 136.168 10.2949 142.926C11.7962 149.684 19.3026 162.07 29.4329 159.066C39.5632 156.063 35.4381 138.799 35.4381 138.799L22.6771 119.277Z" fill="#00675E"/>
<path d="M51.1333 137.373L40.4521 110.039C31.0725 111.361 23.1941 116.053 20.3155 117.954C19.5511 118.457 19.1172 119.311 19.1241 120.227C19.2067 129.327 22.836 138.352 29.0684 144.979C29.7227 145.674 30.7006 145.991 31.6303 145.757C38.393 144.097 45.5069 141.321 51.1333 137.373Z" fill="#00303D"/>
<path d="M53.9979 160.568L49.5146 149.821L74.465 141.527L78.1356 153.486C78.1356 153.486 74.1827 177.845 53.9979 160.568Z" fill="white"/>
<path d="M113.016 49.101C116.79 60.185 115.33 70.8212 103.63 75.6984C91.9294 80.5688 83.2659 73.3838 83.2659 73.3838C82.5773 65.696 82.3913 58.2423 78.7139 51.4569C81.3721 51.4776 84.2163 51.8496 86.5922 53.0344C87.2602 53.3651 88.0591 52.8829 88.0246 52.1389C87.9695 50.8094 88.3345 49.4661 89.037 48.3294C89.946 46.8552 91.7365 46.2146 93.4375 46.5521C97.7555 47.4132 102.459 47.2134 106.763 46.0837C109.077 45.4775 111.577 46.4419 112.755 48.5223C112.858 48.7221 112.954 48.915 113.016 49.101Z" fill="white"/>
<path d="M87.8662 54.4397C85.2975 57.0368 89.2023 64.8211 92.5285 68.3963" stroke="#EBEBEA" stroke-width="2" stroke-miterlimit="10" stroke-linecap="round" stroke-linejoin="round"/>
<path d="M92.4601 49.1974C91.6268 48.977 91.0139 48.2674 90.9243 47.4132C90.7453 45.6842 90.6626 41.296 92.708 41.4751C96.7711 41.8196 100.063 42.3913 104.725 40.7243C108.155 39.4981 108.933 43.9895 108.623 46.3593C108.506 47.2892 107.9 48.0746 107.032 48.4259C104.801 49.3421 97.6457 50.5545 92.4601 49.1974Z" fill="#00675E"/>
<path d="M105.82 28.7723C106.55 27.5668 107.597 26.5679 108.251 25.3211C108.906 24.0742 109.071 22.3864 108.093 21.3669C107.274 20.5127 105.882 20.4232 104.774 20.8434C103.665 21.2636 102.763 22.0833 101.888 22.8893C100.208 24.4462 97.6735 26.7884 95.9932 28.3452C99.2092 29.0754 102.632 29.5783 105.82 28.7723Z" fill="#FCB668"/>
<path d="M106.461 41.0756C109.408 40.373 111.261 41.0136 114.243 39.7254C117.225 38.4372 119.828 35.723 119.993 32.4715C120.09 30.6185 119.366 28.7447 118.072 27.4152C116.784 26.0788 113.953 24.9008 112.108 25.0386C108.706 25.3004 105.263 25.2521 101.923 25.9686C98.5894 26.685 93.8376 28.8067 91.9506 31.6518C90.0706 34.4968 89.2855 39.9734 93.4519 43.1905C95.084 44.4511 97.9076 44.6026 99.9667 44.4166C102.646 44.1755 106.509 43.8931 106.461 41.0756Z" fill="#FCB668"/>
<path d="M107.039 26.0305C106.096 27.732 105.152 29.4542 103.899 30.9422C102.646 32.4302 101.048 33.6977 99.1816 34.2419" stroke="#DC8F36" stroke-width="2" stroke-miterlimit="10" stroke-linecap="round" stroke-linejoin="round"/>
<path d="M109.746 29.0134C111.977 28.2625 114.408 28.0972 116.722 28.545" stroke="#DC8F36" stroke-width="2" stroke-miterlimit="10" stroke-linecap="round" stroke-linejoin="round"/>
<path d="M108.327 34.8964C110.786 33.7391 113.595 33.3464 116.274 33.8011" stroke="#DC8F36" stroke-width="2" stroke-miterlimit="10" stroke-linecap="round" stroke-linejoin="round"/>
<path d="M100.181 40.7656C102.281 40.3453 104.258 40.3316 106.386 40.6002" stroke="#DC8F36" stroke-width="2" stroke-miterlimit="10" stroke-linecap="round" stroke-linejoin="round"/>
<path d="M84.2095 72.2815C88.8235 68.1965 90.7725 61.3421 89.0026 55.4454C88.1418 52.5865 86.3306 49.8517 83.5966 48.6599C80.8626 47.4682 77.1713 48.3017 75.7871 50.947C81.2345 56.8644 84.2026 64.2285 84.2095 72.2815Z" fill="#46311D"/>
<path d="M32.6219 110.411C27.8976 110.7 23.1114 110.983 18.456 110.142C13.8006 109.302 9.20036 107.194 6.25287 103.488C3.53953 100.071 2.4721 95.6413 1.89362 91.3152C0.406103 80.2518 -2.89949 64.9037 5.59864 57.6705C12.6988 51.6222 22.2024 48.4809 31.5062 49.1078C39.2055 65.5926 41.5952 84.7226 39.5843 102.806C39.357 104.838 39.0678 106.946 37.9453 108.654C36.8227 110.369 34.6603 110.287 32.6219 110.411Z" fill="#81603F"/>
<path d="M23.7931 97.4462C23.7931 97.4462 20.639 105.561 28.8685 121.495C35.4729 134.274 43.2892 147.941 45.6995 152.763C46.2918 153.941 47.4556 154.712 48.771 154.795C54.6797 155.16 69.3414 155.484 76.7102 146.453C77.4264 145.571 77.5779 144.352 77.1716 143.291L70.9254 127.068C70.9254 127.068 77.7776 120.138 81.5308 110.053C85.284 99.9675 83.4384 86.5964 83.4384 86.5964L23.7931 97.4462Z" fill="#003E51"/>
<path d="M70.9251 127.075L65.5811 113.532C67.2545 113.614 69.6442 111.926 71.1868 111.265" stroke="#00566A" stroke-width="2" stroke-miterlimit="10" stroke-linecap="round" stroke-linejoin="round"/>
<path d="M84.933 89.2417C86.028 101.325 67.1447 106.03 57.3932 105.954C48.9915 105.885 37.7525 103.901 29.5918 98.5484C42.6007 95.8273 55.8024 92.8307 69.0799 92.3416C74.665 92.1419 80.4084 92.5276 84.933 89.2417Z" fill="#00675E"/>
<path d="M78.9896 50.272C82.6602 53.9781 85.1531 58.7176 85.6145 63.9117C86.076 69.1058 86.4134 72.8464 85.6696 78.0061C88.1351 81.8707 86.8955 89.531 83.4521 92.5552C77.1715 98.0731 69.1554 101.462 59.3351 102.241C49.5147 103.026 39.6254 100.918 30.4386 97.3704C20.4805 93.5265 19.599 78.3643 22.6843 68.1483C23.2627 66.2401 24.0616 64.3526 25.377 62.8577C26.6923 61.3629 28.593 60.2814 30.5833 60.3158C34.853 60.3847 39.1778 59.4754 42.7382 57.1194C45.6168 55.2112 47.9583 52.5591 50.892 50.7335C54.9138 48.2329 59.8102 47.4614 64.5414 47.6956C69.2725 47.9367 74.4031 49.0871 78.9896 50.272Z" fill="#007872"/>
<path d="M61.8008 65.4272C63.7635 66.4468 65.9535 67.301 68.1435 66.9703C70.8293 66.5639 72.9917 64.387 74.0866 61.9002C75.1816 59.4133 75.3951 56.6372 75.5122 53.923C75.5604 52.9103 75.5879 51.8701 75.3194 50.8919C75.0508 49.9137 74.4172 48.9838 73.4806 48.5911C72.303 48.102 70.9739 48.5498 69.7756 48.9975C66.7592 50.1342 63.736 51.2639 60.7196 52.4006C59.2597 52.9517 57.7997 53.4959 56.3397 54.047C54.9762 54.5568 52.9997 54.9219 51.8152 55.7485C48.7988 57.8427 60.1963 64.2355 61.8008 65.4272Z" fill="#E3A946"/>
<path d="M68.3564 69.6707C69.8715 73.8039 70.3123 78.3229 69.6236 82.6628C72.1648 86.8099 73.4457 94.1602 72.8052 98.9823" stroke="#004843" stroke-width="2" stroke-miterlimit="10" stroke-linecap="round" stroke-linejoin="round"/>
<path d="M78.7903 49.8795C80.8563 53.5581 81.6001 58.0909 80.2089 62.0726C78.811 66.0543 74.5963 69.168 70.3817 69.3678C70.1682 70.5182 69.2592 71.5102 68.1297 71.8133C67.0003 72.1164 65.1272 71.2071 64.0391 70.7731C56.9734 67.9142 51.0715 67.2805 40.3765 67.1289C34.4884 67.0462 29.1788 66.6467 23.394 65.5376C21.1421 65.1036 17.2029 63.967 16.4316 61.8039C15.316 58.6902 16.7415 55.232 19.7716 53.9025C19.5788 49.411 22.8775 45.016 27.2437 43.9482C31.4583 50.2859 39.0681 53.0001 46.1338 55.8245C53.1995 58.6488 63.2609 56.3342 67.4617 66.4056C68.2055 58.9244 72.7576 58.7935 73.0881 53.5305C75.0164 52.0287 76.8551 51.3743 78.7903 49.8795Z" fill="#A5A5A5"/>
<path d="M67.9922 66.6812C68.9976 66.9774 69.6863 68.0865 69.5004 69.1198" stroke="#7E7E7E" stroke-width="2" stroke-miterlimit="10" stroke-linecap="round" stroke-linejoin="round"/>
<path d="M24.2275 56.5408C29.2961 61.356 36.899 62.0587 43.8821 62.3549C50.8651 62.6511 58.3991 62.9818 63.874 67.3286" stroke="#7E7E7E" stroke-width="2" stroke-miterlimit="10" stroke-linecap="round" stroke-linejoin="round"/>
<path d="M71.0498 66.2057C72.1792 62.7131 74.1488 59.4892 76.7382 56.8853" stroke="#7E7E7E" stroke-width="2" stroke-miterlimit="10" stroke-linecap="round" stroke-linejoin="round"/>
<path d="M60.0246 67.5078C58.847 74.6308 59.1569 81.9949 60.9199 88.9938" stroke="white" stroke-width="2" stroke-miterlimit="10" stroke-linecap="round" stroke-linejoin="round"/>
<path d="M73.2324 65.1519C75.1951 71.7788 76.1317 78.7089 76.0077 85.6184" stroke="white" stroke-width="2" stroke-miterlimit="10" stroke-linecap="round" stroke-linejoin="round"/>
<path d="M44.2538 94.112C43.937 95.0419 43.2966 95.8273 42.4495 96.3301C38.2555 98.7894 33.3385 100.023 28.4765 99.809C23.098 99.5747 16.5212 97.8594 13.2707 93.5678C8.38122 87.1199 6.66644 78.3712 8.76687 70.5524C9.64836 67.2527 11.2392 64.0425 13.8492 61.845C16.4593 59.6406 20.1987 58.6004 23.401 59.7784C25.7976 60.6602 27.6363 62.6166 29.1238 64.6901C31.1554 67.5145 32.7118 70.6626 34.7296 73.4939C36.7474 76.3252 39.3643 78.9223 42.6837 79.9693C45.2662 80.7891 45.8791 84.6262 45.8033 87.3403C45.7413 89.5723 45.0113 91.9213 44.2538 94.112Z" fill="white"/>
<path d="M41.9814 97.8181C46.1272 92.4931 46.8021 84.8259 44.013 78.6812" stroke="#004843" stroke-width="2" stroke-miterlimit="10" stroke-linecap="round" stroke-linejoin="round"/>
<path d="M36.114 77.0347C32.4985 77.4204 29.1654 79.8246 27.6572 83.1312" stroke="#EBEBEA" stroke-width="2" stroke-miterlimit="10" stroke-linecap="round" stroke-linejoin="round"/>
<path d="M96.8124 14.1129C96.1306 18.5286 90.8761 21.4838 82.1645 19.1968C77.7639 18.0395 74.6856 16.8202 72.1582 13.0382C69.2727 8.72587 71.2905 2.36066 68.3154 -1.88281C72.2615 -0.2364 76.724 -0.808166 80.9938 -1.06305C82.557 -1.15949 84.3613 -1.74504 85.9246 -1.75193C87.4879 -1.75193 89.1269 -1.22838 90.1255 -0.0228488C91.1171 1.18268 91.2411 3.15287 90.1324 4.25507C92.3843 4.06218 94.6293 4.9095 95.807 6.83835C96.9846 8.77409 97.1568 11.8809 96.8124 14.1129Z" fill="#FCB668"/>
<path d="M81.9927 22.6756C81.9927 22.6756 88.5832 25.5551 88.5901 34.8481C88.597 44.141 80.5534 56.9334 55.5892 59.0069C32.7393 60.9013 13.9456 51.1537 20.302 30.5632C20.6395 29.461 19.7167 26.8847 19.6202 25.7205C19.3241 21.9454 19.4825 18.1015 20.2882 14.3953C22.8776 2.51912 31.7408 -3.39832 43.1037 -5.83005C51.1198 -7.54535 59.7488 -7.95179 67.2759 -4.14231C77.3167 0.941595 81.1594 12.0807 81.9927 22.6756Z" fill="#FCB668"/>
<path d="M26.2241 6.22533C26.2241 6.22533 16.4313 3.88316 9.17961 12.8179C5.00629 17.9638 5.17846 26.2509 8.56669 31.9479C9.31734 33.2086 10.2952 34.4279 11.6588 34.9721C13.0224 35.5163 14.8267 35.165 15.536 33.8768C18.4008 36.839 23.5383 37.4727 27.2295 35.6472C30.9208 33.8217 33.1796 29.4749 32.5667 25.4036C31.9469 21.3324 27.5945 16.9718 23.5314 16.3174" fill="#FCB668"/>
<path d="M26.2241 6.22533C26.2241 6.22533 16.4313 3.88316 9.17961 12.8179C5.00629 17.9638 5.17846 26.2509 8.56669 31.9479C9.31734 33.2086 10.2952 34.4279 11.6588 34.9721C13.0224 35.5163 14.8267 35.165 15.536 33.8768C18.4008 36.839 23.5383 37.4727 27.2295 35.6472C30.9208 33.8217 33.1796 29.4749 32.5667 25.4036C31.9469 21.3324 27.5945 16.9718 23.5314 16.3174" stroke="#DC8F36" stroke-width="2" stroke-miterlimit="10" stroke-linecap="round" stroke-linejoin="round"/>
<path d="M72.7637 0.19751C78.6104 4.05521 82.0882 11.2471 81.4822 18.2323" stroke="#DC8F36" stroke-width="2" stroke-miterlimit="10" stroke-linecap="round" stroke-linejoin="round"/>
<path d="M67.8536 25.3072C64.8235 24.2601 61.2286 25.0109 58.839 27.1396C58.1365 27.7664 57.9781 28.7998 58.5084 29.5782C59.5138 31.0524 61.6487 33.1328 65.4226 32.2372C69.527 31.259 69.4237 28.228 69.0587 26.6574C68.921 26.0236 68.4665 25.5138 67.8536 25.3072Z" fill="#593418"/>
<path d="M66.0775 34.6689L65.2305 31.5276" stroke="#593418" stroke-width="2" stroke-miterlimit="10" stroke-linecap="round" stroke-linejoin="round"/>
<path d="M56.498 38.2579C56.498 38.2579 59.5006 45.4498 68.3224 43.3694C75.2504 41.7368 74.665 34.7378 74.665 34.7378C74.665 34.7378 72.9158 37.3211 65.8019 35.5782C65.8019 35.5851 62.2346 39.7046 56.498 38.2579Z" fill="#D23837"/>
<path d="M53.998 36.5012C55.761 37.9685 58.1438 38.6712 60.4164 38.3819C62.689 38.0925 64.8239 36.825 66.1668 34.965C68.0124 36.3428 70.9392 36.4392 73.0947 35.6195C75.2503 34.7997 76.9306 32.8364 77.3989 30.5769" stroke="#593418" stroke-width="2" stroke-miterlimit="10" stroke-linecap="round" stroke-linejoin="round"/>
<path d="M71.7109 22.9443C74.5345 22.1727 77.5921 22.2692 80.3606 23.2198" stroke="#DC8F36" stroke-width="2" stroke-miterlimit="10" stroke-linecap="round" stroke-linejoin="round"/>
<path d="M41.9189 35.778C44.2811 32.4507 47.6486 29.8536 51.4639 28.407" stroke="#DC8F36" stroke-width="2" stroke-miterlimit="10" stroke-linecap="round" stroke-linejoin="round"/>
<path d="M53.4541 24.7423C53.9844 23.4196 54.9347 22.2623 56.1261 21.4839" stroke="#593418" stroke-width="2" stroke-miterlimit="10" stroke-linecap="round" stroke-linejoin="round"/>
<path d="M64.8926 19.2932C66.2148 19.3965 67.4888 20.0165 68.3772 20.9947" stroke="#593418" stroke-width="2" stroke-miterlimit="10" stroke-linecap="round" stroke-linejoin="round"/>
<path d="M11.2944 62.5065C8.9598 61.7831 7.34144 63.6293 6.28089 65.8268C5.22035 68.0244 5.26167 70.5732 5.31676 73.0187C5.47515 79.5906 5.64732 86.2176 7.16927 92.6172C8.43642 97.9422 10.7297 103.143 14.3452 107.208" stroke="#987659" stroke-width="2" stroke-miterlimit="10" stroke-linecap="round" stroke-linejoin="round"/>
<path d="M37.4012 76.5941C39.8735 68.424 37.6147 62.1139 32.9662 57.3744C31.2445 55.6247 28.0491 53.3445 25.6801 52.697C23.3111 52.0425 19.9022 52.077 17.8431 53.4203C15.784 54.7636 12.9949 59.3377 13.5183 61.735C16.5277 59.9026 20.2947 60.6328 23.559 61.9555C26.8233 63.2781 29.5022 65.7856 31.5682 68.6444C33.648 71.4895 34.6947 74.307 37.4012 76.5941Z" fill="#46311D"/>
<path d="M52.5797 169.014C52.5797 169.014 50.314 170.019 52.0976 174.456C53.8813 178.892 68.66 186.415 80.5877 185.175C89.8089 184.217 93.149 182.185 94.1751 178.83C95.1943 175.468 93.8996 168.235 89.3544 168.896C84.8092 169.565 75.1817 177.156 52.5797 169.014Z" fill="white"/>
<path d="M51.9323 156.703C51.9323 156.703 51.3538 164.522 52.5796 169.014C53.8054 173.505 69.2247 181.537 82.0683 179.498C94.9119 177.459 94.3472 170.543 88.0735 163.847C88.0735 163.847 82.8258 157.365 80.8631 153.307C78.1636 147.727 67.4066 151.358 64.7208 154.878C62.0281 158.398 63.7911 161.491 63.7911 161.491C63.7911 161.491 60.2514 160.933 58.1509 160.127C56.0505 159.321 54.3426 156.021 51.9323 156.703Z" fill="#00675E"/>
<path d="M68.2257 158.205C66.9861 159.473 66.0013 161.484 67.0067 162.951C67.902 164.26 69.8716 164.274 71.3522 163.702C72.6194 163.213 73.7557 162.4 74.6303 161.36C75.5393 160.278 76.1522 158.977 76.9786 157.826C77.805 156.676 78.9482 155.635 80.3531 155.456C81.758 155.277 83.3488 156.317 83.3212 157.73C83.2868 159.307 81.3172 160.244 79.7953 159.838C75.2707 158.632 73.2185 153.08 68.2257 158.205Z" stroke="white" stroke-width="2" stroke-miterlimit="10" stroke-linecap="round" stroke-linejoin="round"/>
<path d="M75.0849 168.049C74.3549 164.529 74.9953 160.747 76.841 157.668C78.0392 160.423 79.1618 163.558 80.36 166.313" stroke="white" stroke-width="2" stroke-miterlimit="10" stroke-linecap="round" stroke-linejoin="round"/>
<path d="M72.585 168.118C75.6151 165.163 79.9881 163.64 84.1959 164.067" stroke="white" stroke-width="2" stroke-miterlimit="10" stroke-linecap="round" stroke-linejoin="round"/>
<path d="M75.8223 172.499C78.7766 169.641 82.7709 167.877 86.8754 167.615" stroke="white" stroke-width="2" stroke-miterlimit="10" stroke-linecap="round" stroke-linejoin="round"/>
<path d="M31.251 105.086C36.3746 120.758 42.9101 135.968 50.754 150.469" stroke="#00566A" stroke-width="2" stroke-miterlimit="10" stroke-linecap="round" stroke-linejoin="round"/>
<path d="M46.3814 -6.30532C46.6224 -7.14574 47.0838 -7.95173 47.7931 -8.46839C48.5025 -8.98504 49.4804 -9.17104 50.2861 -8.81971C51.0919 -8.46839 51.9527 -7.49707 51.7392 -6.64975C52.4898 -6.99419 53.2818 -7.28352 54.1013 -7.28352C54.9208 -7.28352 55.7817 -6.95975 56.25 -6.27776C56.9317 -5.29267 56.5599 -3.84603 55.6853 -3.01938C54.8175 -2.19273 53.5848 -1.86207 52.3934 -1.70363C53.1923 -1.97229 53.8947 -0.890756 54.0187 -0.0572166C54.1426 0.776323 53.633 1.60986 52.9375 2.08519C52.2419 2.56051 51.388 2.73273 50.5478 2.82228C47.1045 3.18739 43.5372 2.22985 40.7412 0.190779" fill="#FCB668"/>
<path d="M46.3814 -6.30532C46.6224 -7.14574 47.0838 -7.95173 47.7931 -8.46839C48.5025 -8.98504 49.4804 -9.17104 50.2861 -8.81971C51.0919 -8.46839 51.9527 -7.49707 51.7392 -6.64975C52.4898 -6.99419 53.2818 -7.28352 54.1013 -7.28352C54.9208 -7.28352 55.7817 -6.95975 56.25 -6.27776C56.9317 -5.29267 56.5599 -3.84603 55.6853 -3.01938C54.8175 -2.19273 53.5848 -1.86207 52.3934 -1.70363C53.1923 -1.97229 53.8947 -0.890756 54.0187 -0.0572165C54.1426 0.776323 53.633 1.60986 52.9375 2.08519C52.2419 2.56051 51.388 2.73273 50.5478 2.82228C47.1045 3.18739 43.5372 2.22985 40.7412 0.190779" stroke="#DC8F36" stroke-width="2" stroke-miterlimit="10" stroke-linecap="round" stroke-linejoin="round"/>
<path d="M12.7334 29.5093C12.7334 29.5093 13.5736 32.0099 15.5363 33.8836" stroke="#DC8F36" stroke-width="2" stroke-miterlimit="10" stroke-linecap="round" stroke-linejoin="round"/>
<path d="M10.9982 123.21C10.9087 122.308 10.0961 121.646 9.19394 121.77C7.975 121.943 6.43239 122.466 5.79193 123.961C4.66941 126.586 5.79193 139.164 10.1099 150.614C14.4278 162.063 20.9908 163.564 27.5607 162.814C34.1305 162.063 35.439 153.245 35.439 153.245C35.439 153.245 33.9377 156.855 30.9351 158.501C27.9325 160.141 23.4287 159.817 20.2401 155.498C14.1041 147.19 12.2585 135.693 10.9982 123.21Z" fill="white"/>
<path d="M25.7969 148.175C28.2692 146.549 31.4233 145.998 34.3019 146.673" stroke="white" stroke-width="2" stroke-miterlimit="10" stroke-linecap="round" stroke-linejoin="round"/>
</g>
<g clip-path="url(#clip1_496_1409)">
<path d="M202.047 144.057C202.047 144.057 198.66 151.193 195.455 159.235C192.287 167.185 189.287 176.007 189.822 179.905C190.892 187.665 198.286 196.578 207.814 195.061C217.51 193.516 213.912 180.207 213.912 180.207L219.003 169.685L226.911 153.342L202.047 144.057Z" fill="#BEBEBD"/>
<path d="M219.01 169.692L213.919 180.213C213.919 180.213 217.517 193.523 207.821 195.068C198.293 196.585 190.899 187.672 189.829 179.911C189.294 176.013 192.287 167.192 195.462 159.241C201.3 166.806 209.947 172.038 219.01 169.692Z" fill="white"/>
<path d="M216.292 183.915C217.574 178.352 206.554 174.841 200.815 177.706C199.758 178.233 199.019 179.336 198.836 180.621C198.688 181.653 198.498 182.672 198.484 183.753C194.055 181.077 191.857 175.845 191.759 170.044C189.203 167.684 187.569 173.155 185.499 175.62C183.633 177.84 186.309 182.426 187.238 185.249C188.773 189.927 191.02 194.352 194.245 197.709C197.477 201.073 201.779 203.3 206.251 203.236C210.758 203.173 215.278 202.787 217.63 198.362C219.996 193.902 215.131 188.944 216.292 183.915Z" fill="#87461E"/>
<path d="M207.476 208.055C202.49 208.525 192.843 205.723 187.625 195.447C184.365 189.035 182.872 184.442 182.21 181.885C181.71 179.968 182.203 177.805 183.576 176.512C184.104 176.014 184.745 175.648 185.492 175.613C185.492 175.613 189.125 195.068 199.195 200.413C205.793 203.918 215.321 204.276 218.194 197.47C218.194 197.47 218.334 200.582 215.961 204.515C213.109 209.249 207.476 208.055 207.476 208.055Z" fill="white"/>
<path d="M202.836 189.976C206.434 187.272 211.737 187.075 215.525 189.506" stroke="white" stroke-width="2" stroke-miterlimit="10" stroke-linecap="round" stroke-linejoin="round"/>
<path d="M204.04 193.46C207.638 190.756 212.941 190.559 216.729 192.989" stroke="white" stroke-width="2" stroke-miterlimit="10" stroke-linecap="round" stroke-linejoin="round"/>
<path d="M209.011 183.016C208.145 182.25 207.166 181.555 206.032 181.295C204.906 181.035 203.596 181.281 202.835 182.152C202.075 183.023 202.103 184.554 203.047 185.221C203.758 185.72 204.737 185.636 205.539 185.292C206.335 184.947 207.018 184.393 207.772 183.964C209.194 183.149 210.877 182.805 212.504 182.988C213.328 183.079 214.285 183.473 214.391 184.287C214.511 185.228 213.292 185.868 212.384 185.601C211.476 185.334 210.849 184.533 210.236 183.81C209.814 183.311 209.222 182.777 208.596 182.974C208.349 183.051 208.152 183.227 207.962 183.402C206.546 184.695 205.131 185.98 203.716 187.272" stroke="white" stroke-width="2" stroke-miterlimit="10" stroke-linecap="round" stroke-linejoin="round"/>
<path d="M208.688 183.079C209.849 184.4 210.554 186.106 210.666 187.855" stroke="white" stroke-width="2" stroke-miterlimit="10" stroke-linecap="round" stroke-linejoin="round"/>
<path d="M235.896 154.817C235.896 154.817 237.791 162.845 240.424 171.498C243.023 180.045 246.339 189.204 249.325 192.034C255.268 197.674 267.127 200.153 273.915 192.722C280.83 185.158 269.197 176.632 269.197 176.632L266.479 164.734L262.261 146.255L235.896 154.817Z" fill="#BEBEBD"/>
<path d="M266.479 164.727L269.197 176.625C269.197 176.625 277.429 187.258 270.514 194.815C263.726 202.246 255.269 197.667 249.326 192.027C246.34 189.197 243.023 180.038 240.425 171.491C250.135 173.879 260.614 172.53 266.479 164.727Z" fill="white"/>
<path d="M243.713 194.169C243.713 194.169 241.48 195.159 243.241 199.514C244.994 203.875 259.564 211.257 271.309 210.042C280.393 209.101 283.689 207.106 284.696 203.805C285.703 200.504 284.421 193.397 279.95 194.05C275.471 194.71 265.979 202.169 243.713 194.169Z" fill="white"/>
<path d="M243.079 182.075C243.079 182.075 242.508 189.751 243.719 194.169C244.923 198.58 260.12 206.474 272.774 204.473C285.428 202.471 284.871 195.679 278.696 189.098C278.696 189.098 273.527 182.735 271.598 178.739C268.943 173.253 258.345 176.821 255.69 180.284C253.036 183.746 254.775 186.781 254.775 186.781C254.775 186.781 251.289 186.233 249.219 185.439C247.135 184.645 245.452 181.408 243.079 182.075Z" fill="#87461E"/>
<path d="M259.127 183.55C257.909 184.8 256.937 186.773 257.923 188.213C258.81 189.499 260.747 189.513 262.205 188.951C263.451 188.466 264.571 187.672 265.437 186.647C266.331 185.586 266.937 184.308 267.753 183.177C268.57 182.047 269.697 181.021 271.077 180.846C272.457 180.67 274.028 181.688 273.999 183.079C273.971 184.631 272.028 185.551 270.521 185.151C266.07 183.971 264.056 178.521 259.127 183.55Z" stroke="white" stroke-width="2" stroke-miterlimit="10" stroke-linecap="round" stroke-linejoin="round"/>
<path d="M265.894 193.221C265.176 189.765 265.81 186.05 267.619 183.016C268.802 185.727 269.901 188.803 271.084 191.514" stroke="white" stroke-width="2" stroke-miterlimit="10" stroke-linecap="round" stroke-linejoin="round"/>
<path d="M263.423 193.291C266.409 190.391 270.718 188.895 274.866 189.309" stroke="white" stroke-width="2" stroke-miterlimit="10" stroke-linecap="round" stroke-linejoin="round"/>
<path d="M266.612 197.597C269.528 194.787 273.457 193.052 277.499 192.8" stroke="white" stroke-width="2" stroke-miterlimit="10" stroke-linecap="round" stroke-linejoin="round"/>
<path d="M216.186 82.1665L206.405 95.5602L221.179 136.317C221.179 136.317 252.064 137.462 258.205 130.958C264.345 124.455 248.994 81.0146 248.994 81.0146L216.186 82.1665Z" fill="#FBD6DA"/>
<path d="M214.525 129.069C237.805 136.577 257.628 127.011 257.628 127.011C263.254 133.901 269.775 148.952 269.775 148.952C265.684 157.113 260.825 157.373 260.825 157.373L261.078 160.436C235.756 175.999 209.92 164.01 209.92 164.01L210.434 161.714C192.527 157.633 192.02 150.23 192.02 150.23C194.322 144.619 198.667 136.198 198.667 136.198C200.871 136.198 202.188 135.067 203.962 133.76C206.913 131.576 211.575 131.246 214.525 129.069Z" fill="#C0733C"/>
<path d="M210.434 161.707L214.271 147.421" stroke="#A95D28" stroke-width="2" stroke-miterlimit="10" stroke-linecap="round" stroke-linejoin="round"/>
<path d="M255.712 141.037L260.824 157.366" stroke="#A95D28" stroke-width="2" stroke-miterlimit="10" stroke-linecap="round" stroke-linejoin="round"/>
<path d="M236.27 141.037L237.551 165.275" stroke="#A95D28" stroke-width="2" stroke-miterlimit="10" stroke-linecap="round" stroke-linejoin="round"/>
<path d="M242.495 102.057C243.361 102.857 244.727 102.773 245.481 101.867C246.868 100.203 248.438 97.8708 248.706 96.9297C249.727 93.2494 249.882 89.3303 249.142 85.5798C238.84 87.8203 227.876 89.3023 217.349 89.8992C217.525 93.1932 220.102 99.9147 227.911 104.199C229.601 105.126 231.707 104.529 232.721 102.893C233.756 101.221 234.946 99.6408 236.263 98.1729C238.72 98.5451 240.579 100.294 242.495 102.057Z" fill="white"/>
<path d="M225.018 90.0117C225.018 90.0117 227.574 98.4328 235.89 96.7752C244.206 95.1177 243.566 87.9749 243.566 87.9749L225.018 90.0117Z" fill="#BEBEBD"/>
<path d="M219.947 139.569C219.714 140.953 218.693 142.111 217.468 142.8C216.243 143.481 215.095 144.626 213.694 144.745C207.891 145.244 201.652 142.512 197.167 138.81C196.448 138.22 195.751 137.553 195.385 136.703C195.019 135.847 195.068 134.765 195.723 134.105C203.969 135.706 211.701 137.954 219.947 139.569Z" fill="#00675E"/>
<path d="M227.32 101.621C227.672 106.903 227.51 112.163 227.243 117.445C226.954 123.141 226.545 128.914 224.813 134.386C223.546 138.389 221.116 142.631 216.384 142.631C208.519 142.631 195.857 137.272 194.703 134.02C193.555 130.768 196.238 126.175 196.238 126.175C196.238 126.175 194.59 96.5713 201.611 90.9666C203.955 89.0914 207.216 86.6683 209.54 85.7974C212.687 89.5268 216.814 92.5047 221.194 94.668C222.715 95.4195 224.32 96.0797 225.595 97.1964C226.869 98.3131 227.207 99.9285 227.32 101.621Z" fill="#007872"/>
<path d="M227.165 103.777C228.404 102.141 227.961 99.7039 226.743 98.0534C225.524 96.3958 223.715 95.3072 222.018 94.1413C218.025 91.3881 214.103 87.757 211.194 83.873C208.758 83.9363 206.159 86.0082 205.181 88.2276C210.673 95.8691 218.25 100.729 227.165 103.777Z" fill="#007872"/>
<path d="M218.102 120.535C218.165 119.622 217.842 118.73 217.257 118.028C214.708 114.952 213.743 113.617 214.236 109.733C214.588 106.987 215.623 105.4 216.433 102.759C217.37 99.6969 216.94 96.2484 215.292 93.5092C213.243 90.1099 208.258 88.3119 204.392 89.2601C194.597 91.6621 186.618 100.729 185.921 110.836C185.154 121.982 192.639 130.115 203.533 132.7C207.032 133.529 212.004 131.654 214.511 129.083C216.694 126.849 217.891 123.668 218.102 120.535Z" fill="white"/>
<path d="M221.56 117.951C213.117 120.627 209.687 128.458 205.983 134.765C209.835 134.456 213.779 133.177 216.532 130.466C219.292 127.762 221.194 121.793 221.56 117.951Z" fill="#007872"/>
<path d="M206.885 134.561C209.202 128.261 213.715 122.797 219.468 119.32" stroke="#004843" stroke-width="2" stroke-miterlimit="10" stroke-linecap="round" stroke-linejoin="round"/>
<path d="M204.194 113.891C206.821 112.241 210.138 111.735 213.137 112.515" stroke="#EBEBEA" stroke-width="2" stroke-miterlimit="10" stroke-linecap="round" stroke-linejoin="round"/>
<path d="M217.722 98.5591C219.947 101.017 222.933 102.78 226.158 103.546" stroke="#004843" stroke-width="2" stroke-miterlimit="10" stroke-linecap="round" stroke-linejoin="round"/>
<path d="M208.004 86.4436C212.989 91.0369 220.2 97.1824 226.291 100.35" stroke="white" stroke-miterlimit="10"/>
<path d="M246.875 90.6157C246.565 92.6595 245.861 94.6401 244.805 96.4171C244.072 97.6602 244.037 99.1983 244.805 100.42C247.206 104.213 248.748 108.687 249.614 113.042C250.642 118.19 251.262 123.457 253.022 128.402C254.536 132.658 257.029 136.76 260.67 139.358C261.649 140.054 263.029 139.667 263.501 138.572C265.543 133.831 265.831 128.015 263.944 123.317C260.205 114.011 261.325 103.265 257.325 94.0642C256.304 91.7184 255.177 89.2391 253.001 87.8625C250.579 86.3174 247.305 87.7712 246.875 90.6157Z" fill="#007872"/>
<path d="M247.713 102.12C250.17 98.9386 252.452 92.3085 252.635 88.2981" stroke="#004843" stroke-width="2" stroke-miterlimit="10" stroke-linecap="round" stroke-linejoin="round"/>
<path d="M252.832 87.1462C258.846 94.4154 261.282 103.904 260.55 113.301C260.261 117.003 259.458 120.957 261.148 124.265C262.691 127.285 264.254 130.502 264.719 133.866C272.472 129.153 275.535 122.523 276.823 113.554C277.971 105.519 274.711 95.7288 267.232 90.5947C262.191 87.1391 258.205 86.191 252.832 87.1462Z" fill="white"/>
<path d="M260.909 113.941C262.318 111.019 265.507 109.045 268.761 109.087" stroke="#EBEBEA" stroke-width="2" stroke-miterlimit="10" stroke-linecap="round" stroke-linejoin="round"/>
<path d="M259.036 120.585C261.487 123.815 263.226 127.587 264.092 131.548" stroke="#004843" stroke-width="2" stroke-miterlimit="10" stroke-linecap="round" stroke-linejoin="round"/>
<path d="M221.102 39.4639C219.482 35.5308 216.145 32.7284 212.222 31.113C209.913 30.1649 207.23 31.1692 206.082 33.3746C203.293 38.7264 202.885 45.3214 205.188 50.9121C209.434 46.4592 215.461 43.0037 220.877 40.0679C220.701 40.1311 221.292 39.4007 221.102 39.4639Z" fill="#BEBEBD"/>
<path d="M264.346 64.2356C264.423 74.0965 259.262 82.7142 251.403 87.9748C249.206 89.4427 246.805 90.6507 244.242 91.5497C241.066 92.6665 237.517 93.3196 233.862 93.4812C224.715 93.9026 214.906 91.2899 208.674 85.2778C203.125 79.9189 201.322 72.1931 201.259 64.7202C201.195 56.3483 204.85 48.7559 210.786 43.3338C216.413 38.1857 224.088 34.99 232.566 34.9268C249.995 34.7933 264.219 47.9131 264.346 64.2356Z" fill="white"/>
<path d="M251.403 87.9748C249.206 89.4427 246.805 90.6508 244.242 91.5498C241.066 92.6665 237.517 93.3197 233.862 93.4812C224.715 93.9026 214.906 91.2899 208.674 85.2778" fill="white"/>
<path d="M251.403 87.9748C249.206 89.4427 246.805 90.6508 244.242 91.5498C241.066 92.6665 237.517 93.3197 233.862 93.4812C224.715 93.9026 214.906 91.2899 208.674 85.2778" stroke="#E1E1E1" stroke-width="2" stroke-miterlimit="10" stroke-linecap="round" stroke-linejoin="round"/>
<path d="M232.58 34.9268C224.102 34.99 216.426 38.1856 210.8 43.3338C204.871 48.7559 201.209 56.3482 201.272 64.7202C208.258 66.7219 217.82 65.3453 224.834 59.4877C229.615 55.4984 236.08 43.3619 232.58 34.9268Z" fill="#BEBEBD"/>
<path d="M213.87 55.4353C216.419 56.5169 218.666 58.3149 220.278 60.5694" stroke="#737374" stroke-width="2" stroke-miterlimit="10" stroke-linecap="round" stroke-linejoin="round"/>
<path d="M227.482 61.9741C230.468 60.429 233.841 59.6213 237.207 59.6564" stroke="#737374" stroke-width="2" stroke-miterlimit="10" stroke-linecap="round" stroke-linejoin="round"/>
<path d="M215.237 67.2417C214.708 68.6534 215.398 70.4093 216.743 71.0905C218.095 71.7718 219.919 71.2802 220.743 70.016C220.863 71.3996 222.285 72.5374 223.623 72.8956C224.961 73.2608 226.595 72.5865 227.285 71.0273" stroke="#737374" stroke-width="2" stroke-miterlimit="10" stroke-linecap="round" stroke-linejoin="round"/>
<path d="M220.785 70.5075L221.257 67.7754" stroke="#737374" stroke-width="2" stroke-miterlimit="10" stroke-linecap="round" stroke-linejoin="round"/>
<path d="M224.919 64.6429C223.489 63.6948 221.722 63.2453 220.011 63.4068C219.609 63.4419 219.286 63.772 219.236 64.1724C219.039 65.6964 219.785 67.354 221.257 67.7754C222.68 68.1827 224.447 67.2135 225.215 65.8791C225.461 65.4506 225.334 64.9168 224.919 64.6429Z" fill="#5C5C5C"/>
<path d="M215.856 39.1198C215.997 39.169 216.145 39.2181 216.285 39.2673C215.595 38.3121 214.891 37.3429 213.969 36.6195C213.039 35.8961 211.835 35.4325 210.68 35.6502C208.941 35.9733 207.779 37.7362 207.568 39.485C207.356 41.2339 207.892 42.9757 208.427 44.6543C210.518 42.3225 213.074 40.5947 215.856 39.1198Z" fill="white"/>
<path d="M205.47 49.6199C208.568 44.3243 213.821 40.4754 219.363 37.8206" stroke="#8F8F8F" stroke-width="2" stroke-miterlimit="10" stroke-linecap="round" stroke-linejoin="round"/>
<path d="M246.791 39.464C250.439 37.3781 254.474 35.9734 258.621 35.3343C260.48 35.0463 262.565 34.969 264.057 36.1139C265.607 37.3008 266.029 39.45 266.043 41.3955C266.071 47.0283 263.417 52.6189 259.023 56.1588" fill="white"/>
<path d="M246.791 39.464C250.439 37.3781 254.474 35.9734 258.621 35.3343C260.48 35.0463 262.565 34.969 264.057 36.1139C265.607 37.3008 266.029 39.45 266.043 41.3955C266.071 47.0283 263.417 52.6189 259.023 56.1588" stroke="#E1E1E1" stroke-width="2" stroke-miterlimit="10" stroke-linecap="round" stroke-linejoin="round"/>
<path d="M256.677 48.9174C258.022 47.3652 258.832 45.3425 258.825 43.2776C258.825 42.6034 258.663 41.9221 258.276 41.3672C257.311 40.0047 255.726 40.2856 254.403 40.7C252.959 41.1425 251.558 41.7114 250.213 42.3856C249.713 42.6314 249.544 43.2565 249.825 43.7411C250.776 45.3846 251.973 47.1756 253.156 48.784C254.001 49.9499 255.733 50.0131 256.677 48.9174Z" fill="#BEBEBD"/>
<path d="M227.271 38.0171C224.983 38.9793 222.694 39.9345 220.398 40.8967C218.758 41.585 216.821 42.2593 215.293 41.3603C213.723 40.4402 213.385 38.3191 213.512 36.5C213.582 35.4746 213.751 34.4422 214.223 33.5291C214.702 32.6231 215.209 31.8154 216.216 31.6188C216.363 29.9893 217.216 28.4301 218.511 27.4258C219.807 26.4214 221.525 25.9789 223.152 26.2388C225.806 26.6672 228.954 28.0649 230.243 30.4177C231.046 31.8856 231.426 33.6485 230.94 35.2499C230.461 36.8582 228.813 37.3639 227.271 38.0171Z" fill="#F48484"/>
<path d="M228.482 35.4607C228.37 36.2754 228.412 37.1814 228.954 37.7995C229.616 38.551 230.743 38.6072 231.743 38.6072C232.968 38.6072 234.348 38.5439 235.165 37.6379C235.925 36.8021 236.651 34.3229 236.383 33.2272C235.94 31.4573 233.531 30.2774 231.348 30.8041C229.595 31.2255 228.701 33.9085 228.482 35.4607Z" fill="#F48484"/>
<path d="M228.497 36.423C228.264 34.6671 229.046 32.8059 230.475 31.7454" stroke="#F16362" stroke-width="2" stroke-miterlimit="10" stroke-linecap="round"/>
<path d="M221.188 30.748C222.856 30.6286 224.568 31.0289 226.004 31.8858C226.772 32.3423 227.525 33.0727 227.455 33.9507C227.37 34.941 226.293 35.5379 225.314 35.6925C224.328 35.847 223.286 35.7416 222.378 36.149" stroke="#F16362" stroke-width="2" stroke-miterlimit="10" stroke-linecap="round"/>
<path d="M233.721 36.3946C233.123 38.8388 235.904 42.3926 237.792 44.0642C239.137 45.2582 241.214 45.8763 242.742 44.9351C243.953 44.1906 244.495 42.6946 245.608 41.8097C246.692 40.9458 248.22 40.7351 249.22 39.7729C250.495 38.5578 250.502 36.4016 249.53 34.9337C246.291 30.0314 235.123 30.7267 233.721 36.3946Z" fill="#F48484"/>
<path d="M233.968 37.111C234.158 35.4535 235.841 34.2665 237.51 34.1682C239.179 34.0699 240.784 34.8354 242.15 35.7976" stroke="#F16362" stroke-width="2" stroke-miterlimit="10" stroke-linecap="round"/>
<path d="M237.291 105.512C238.139 105.512 238.826 104.827 238.826 103.981C238.826 103.136 238.139 102.45 237.291 102.45C236.443 102.45 235.756 103.136 235.756 103.981C235.756 104.827 236.443 105.512 237.291 105.512Z" fill="#F48484"/>
<path d="M238.249 111.061C239.097 111.061 239.784 110.375 239.784 109.53C239.784 108.684 239.097 107.999 238.249 107.999C237.401 107.999 236.714 108.684 236.714 109.53C236.714 110.375 237.401 111.061 238.249 111.061Z" fill="#F48484"/>
<path d="M245.994 98.9384C247.635 96.122 248.945 93.116 249.895 89.9976" stroke="white" stroke-miterlimit="10"/>
</g>
<g clip-path="url(#clip2_496_1409)">
<path d="M307.189 109.299C307.189 109.299 301.152 111.247 297.395 114.309C293.638 117.371 300.184 124.295 303.461 128.624C306.737 132.953 316.849 139.769 324.709 135.293C332.561 130.817 323.932 119.819 323.932 119.819L307.189 109.299Z" fill="#F26768"/>
<path d="M336.304 113.042L320.974 98.4258C314.124 101.215 309.308 105.765 307.599 107.543C307.147 108.015 307.034 108.634 307.281 109.196C309.725 114.792 314.865 119.597 321.376 122.37C322.061 122.659 322.894 122.648 323.544 122.313C328.289 119.864 333.02 116.661 336.304 113.042Z" fill="#FDE4E6"/>
<path d="M298.271 114.792C297.925 114.184 297.028 113.922 296.294 114.224C295.298 114.633 294.119 115.36 294.006 116.547C293.808 118.637 298.476 127.09 305.559 134.009C312.641 140.928 318.749 140.417 324.187 138.343C329.631 136.27 328.169 129.845 328.169 129.845C328.169 129.845 327.936 132.708 325.832 134.554C323.728 136.401 319.745 137.241 315.727 135.003C307.995 130.692 303.031 123.153 298.271 114.792Z" fill="white"/>
<path d="M318.375 128.607C320.034 126.897 322.584 125.767 325.267 125.556" stroke="white" stroke-width="2" stroke-miterlimit="10" stroke-linecap="round" stroke-linejoin="round"/>
<path d="M331.559 105.225C331.559 105.225 333.458 111.718 336.099 118.717C338.705 125.63 342.031 133.038 345.025 135.327C350.985 139.889 362.876 141.894 369.683 135.884C376.618 129.766 364.952 122.869 364.952 122.869L362.227 113.246L357.997 98.3008L331.559 105.225Z" fill="white"/>
<path d="M339.397 137.054C339.397 137.054 337.158 137.855 338.923 141.377C340.682 144.905 355.292 150.875 367.07 149.892C376.18 149.131 379.484 147.518 380.494 144.848C381.504 142.178 380.219 136.429 375.735 136.957C371.244 137.491 361.725 143.524 339.397 137.054Z" fill="white"/>
<path d="M338.754 127.272C338.754 127.272 338.182 133.481 339.396 137.054C340.604 140.621 355.842 147.006 368.532 145.387C381.221 143.768 380.664 138.275 374.471 132.953C374.471 132.953 369.287 127.806 367.353 124.574C364.69 120.137 354.063 123.023 351.401 125.823C348.739 128.624 350.483 131.078 350.483 131.078C350.483 131.078 346.987 130.635 344.911 129.993C342.828 129.351 341.133 126.732 338.754 127.272Z" fill="#F26768"/>
<path d="M354.854 128.465C353.633 129.476 352.658 131.072 353.647 132.237C354.537 133.276 356.479 133.288 357.94 132.833C359.19 132.441 360.313 131.799 361.181 130.97C362.078 130.112 362.686 129.078 363.505 128.164C364.324 127.249 365.454 126.42 366.838 126.278C368.222 126.136 369.796 126.96 369.768 128.084C369.74 129.34 367.791 130.084 366.28 129.76C361.817 128.806 359.79 124.392 354.854 128.465Z" stroke="white" stroke-width="2" stroke-miterlimit="10" stroke-linecap="round" stroke-linejoin="round"/>
<path d="M361.633 136.287C360.913 133.492 361.548 130.487 363.363 128.033C364.55 130.226 365.651 132.714 366.837 134.907" stroke="white" stroke-width="2" stroke-miterlimit="10" stroke-linecap="round" stroke-linejoin="round"/>
<path d="M359.161 136.344C362.155 133.998 366.477 132.788 370.636 133.123" stroke="white" stroke-width="2" stroke-miterlimit="10" stroke-linecap="round" stroke-linejoin="round"/>
<path d="M362.36 139.821C365.284 137.548 369.224 136.145 373.277 135.941" stroke="white" stroke-width="2" stroke-miterlimit="10" stroke-linecap="round" stroke-linejoin="round"/>
<path d="M377.09 101.442C377.09 101.442 371.688 91.3872 366.469 85.3714C369.562 76.8903 356.252 46.499 356.252 46.499L323.352 47.4306L313.544 58.2636L326.177 86.3712C324.694 86.0872 323.197 85.752 321.686 85.3601C318.727 87.121 314.052 87.388 311.093 89.149C309.314 90.2056 307.993 91.1202 305.783 91.1202C305.783 91.1202 301.419 97.9312 299.117 102.47C300.812 107.884 309.039 111.979 315.881 112.911C322.717 113.843 328.74 114.649 335.674 114.746C343.597 114.859 352.544 114.564 360.368 113.542C368.185 112.53 376.525 107.804 377.09 101.442Z" fill="#F7A4A5"/>
<path d="M327.123 93.8526C326.89 94.9717 325.866 95.909 324.637 96.4657C323.408 97.0167 322.257 97.9427 320.852 98.0392C315.033 98.4426 308.777 96.2328 304.279 93.2391C303.558 92.7619 302.859 92.2223 302.492 91.5349C302.125 90.8419 302.174 89.9671 302.831 89.4331C311.1 90.734 318.854 92.5518 327.123 93.8526Z" fill="#00675E"/>
<path d="M334.516 63.1661C334.869 67.4379 334.707 71.6927 334.438 75.9645C334.149 80.5715 333.739 85.2409 332.002 89.6661C330.731 92.9041 328.295 96.3352 323.55 96.3352C315.662 96.3352 302.966 92.0008 301.807 89.3707C300.649 86.7406 303.347 83.0255 303.347 83.0255C303.347 83.0255 301.694 59.0817 308.735 54.5486C311.086 53.0319 314.356 51.0721 316.686 50.3677C319.842 53.3841 323.98 55.7927 328.373 57.5423C329.898 58.1501 331.508 58.6841 332.786 59.5873C334.064 60.4962 334.396 61.7971 334.516 63.1661Z" fill="#007872"/>
<path d="M334.361 64.9043C335.604 63.5807 335.159 61.6095 333.938 60.2746C332.716 58.9339 330.901 58.0535 329.199 57.1105C325.196 54.8837 321.262 51.9468 318.346 48.8054C315.903 48.8565 313.297 50.5323 312.315 52.3274C317.823 58.5136 325.422 62.4446 334.361 64.9043Z" fill="#007872"/>
<path d="M324.892 60.6892C327.123 62.6774 330.117 64.1032 333.351 64.7224" stroke="#004843" stroke-width="2" stroke-miterlimit="10" stroke-linecap="round" stroke-linejoin="round"/>
<path d="M315.146 50.8901C320.146 54.6053 327.377 59.5758 333.485 62.1377" stroke="white" stroke-miterlimit="10"/>
<path d="M354.126 54.2645C353.815 55.9175 353.109 57.5194 352.049 58.9566C351.315 59.9621 351.28 61.2062 352.049 62.1946C354.457 65.2621 356.004 68.8807 356.872 72.4026C357.903 76.5665 358.525 80.827 360.29 84.8261C361.808 88.2686 364.308 91.586 367.959 93.6879C368.94 94.2503 370.325 93.9378 370.798 93.0516C372.845 89.2172 373.135 84.5137 371.243 80.7134C367.493 73.1866 368.616 64.4952 364.605 57.0536C363.581 55.1563 362.451 53.1511 360.269 52.0377C357.84 50.7822 354.556 51.9638 354.126 54.2645Z" fill="#007872"/>
<path d="M354.966 63.5637C357.43 60.9904 359.718 55.6279 359.902 52.3843" stroke="#004843" stroke-width="2" stroke-miterlimit="10" stroke-linecap="round" stroke-linejoin="round"/>
<path d="M377.993 83.6447C375.755 85.3318 372.076 84.7467 370.734 82.5256C369.661 80.7589 368.849 78.9354 367.966 77.5437C366.271 74.8681 364.527 72.3459 366.067 68.1707C367.79 63.4842 366.137 57.3378 360.1 51.4583C365.488 50.6858 373.185 57.1844 375.684 59.9679C381.489 66.4324 385.231 78.197 377.993 83.6447Z" fill="white"/>
<path d="M353.243 60.9902C354.888 58.7123 356.202 56.281 357.155 53.7588" stroke="white" stroke-miterlimit="10"/>
<path d="M313.467 60.5642C312.372 61.831 311.489 63.2284 310.875 64.6883C311.821 64.4952 312.782 64.3418 313.749 64.2339C313.728 63.9498 313.707 63.6658 313.685 63.3875C313.622 62.4502 313.551 61.4958 313.467 60.5642Z" stroke="#FFD75A" stroke-miterlimit="10"/>
<path d="M348.943 53.6225C348.986 53.5202 349.028 53.4123 349.07 53.3101C348.76 56.5253 345.017 59.1327 341.027 59.3997C337.038 59.6723 333.09 57.8943 330.725 55.2926C336.748 53.8724 342.821 53.4294 349.099 53.401C348.915 53.4237 349.12 53.5998 348.943 53.6225Z" fill="white"/>
<path d="M322.83 16.9883C317.519 12.5234 314.208 6.55874 313.629 0.395282C313.388 -2.12123 313.699 -4.882 315.789 -6.76228C318.021 -8.76186 321.897 -9.23903 325.026 -8.28469C328.147 -7.33603 330.534 -5.17171 331.953 -2.73473C333.372 -0.303433 333.923 2.39486 334.262 5.07042C334.82 9.5297 334.778 14.1821 332.617 18.3119C329.107 20.1922 325.746 19.4424 322.83 16.9883Z" fill="white"/>
<path d="M326.255 14.6081C323.437 11.9439 321.227 8.85935 319.765 5.55892C319.031 3.88882 318.487 2.03694 319.229 0.372521C319.97 -1.2919 322.463 -2.54731 324.44 -1.75771C325.626 -1.28054 326.29 -0.252346 326.82 0.730399C328.917 4.58753 330.301 8.68893 330.922 12.8699C331.042 13.6765 330.456 15.0683 329.517 15.358C328.578 15.6477 326.904 15.2216 326.255 14.6081Z" fill="#FCDEE1"/>
<path d="M358.998 51.8161C354.634 54.0883 350.277 55.1165 343.555 55.7527C343.555 55.7527 321.481 58.4908 312.703 50.1971C303.926 41.9034 310.105 35.9388 310.105 35.9388C308.403 23.788 319.722 12.7903 335.385 11.3702C351.047 9.95001 365.12 18.647 366.822 30.7978C366.815 30.7978 373.559 44.2382 358.998 51.8161Z" fill="white"/>
<path d="M358.998 51.8162C354.634 54.0885 350.277 55.1167 343.555 55.7529C343.555 55.7529 321.481 58.491 312.703 50.1973" fill="white"/>
<path d="M358.998 51.8162C354.634 54.0885 350.277 55.1167 343.555 55.7529C343.555 55.7529 321.481 58.491 312.703 50.1973" stroke="#E1E1E1" stroke-width="2" stroke-miterlimit="10" stroke-linecap="round" stroke-linejoin="round"/>
<path d="M334.883 34.2006C335.846 34.2006 336.627 33.4045 336.627 32.4226C336.627 31.4406 335.846 30.6445 334.883 30.6445C333.92 30.6445 333.139 31.4406 333.139 32.4226C333.139 33.4045 333.92 34.2006 334.883 34.2006Z" fill="#353635"/>
<path d="M324.136 32.2465C324.136 33.2293 324.92 34.0246 325.88 34.0246C326.84 34.0246 327.624 33.2293 327.624 32.2465C327.624 31.2638 326.84 30.4685 325.88 30.4685C324.92 30.4685 324.136 31.2638 324.136 32.2465Z" fill="#353635"/>
<path d="M337.143 12.779C336.027 6.66672 337.616 0.258989 341.571 -5.03534C343.188 -7.19965 345.426 -9.30715 348.484 -9.86385C351.739 -10.4603 355.249 -9.03448 357.113 -6.80769C358.977 -4.57521 359.366 -1.70082 358.772 0.940662C358.179 3.58215 356.689 6.04185 355.037 8.38226C352.283 12.2792 348.9 16.0511 344.162 18.4142C339.954 18.312 337.758 16.1363 337.143 12.779Z" fill="white"/>
<path d="M341.649 12.4267C341.267 8.93881 341.684 5.39979 342.87 2.03119C343.471 0.327006 344.36 -1.43398 346.168 -2.44513C347.976 -3.45628 350.906 -3.31994 351.951 -1.75778C352.58 -0.814796 352.375 0.332687 352.1 1.37792C351.033 5.49636 349.212 9.48983 346.712 13.1879C346.232 13.898 344.749 14.7614 343.774 14.5626C342.793 14.3638 341.734 13.2333 341.649 12.4267Z" fill="#FCDEE1"/>
<path d="M347.841 17.8347C346.768 17.6643 345.73 17.2383 345.038 16.5509C344.346 15.8636 343.978 14.9376 344.226 14.0799C344.452 13.3073 345.638 12.529 346.859 12.387C346.019 11.5406 345.991 10.2568 346.732 9.35359C347.474 8.45037 348.9 7.95048 350.242 7.99024C351.393 8.03001 352.615 8.81393 353.179 9.79099C354.048 9.16045 355.404 8.87073 356.527 9.13772C357.649 9.40471 358.574 10.1659 358.878 11.0748C359.182 11.9837 358.857 13.0176 358.052 13.6993C359.104 13.7277 360.128 14.4264 360.566 15.1989C361.272 16.4373 360.82 18.0336 359.514 18.9027C358.214 19.7718 356.181 19.8343 354.797 19.0504C355.079 20.1354 354.133 21.3226 352.862 21.7544C351.598 22.1861 349.804 21.9759 348.78 21.2374C347.714 20.4649 347.085 19.1413 347.841 17.8347Z" fill="#F7A4A5"/>
<path d="M357.657 13.739C356.075 13.5857 354.415 13.989 353.215 14.8297" stroke="#F48484" stroke-miterlimit="10" stroke-linecap="round" stroke-linejoin="round"/>
<path d="M351.407 15.5454C349.952 15.6988 348.907 16.4032 348.145 17.4143" stroke="#F48484" stroke-miterlimit="10" stroke-linecap="round" stroke-linejoin="round"/>
<path d="M352.96 10.0977C352.339 11.1599 352.12 12.5176 352.72 13.5912" stroke="#F48484" stroke-miterlimit="10" stroke-linecap="round" stroke-linejoin="round"/>
<path d="M347.163 12.7393C347.982 13.5857 349.183 14.1821 350.482 14.3866" stroke="#F48484" stroke-miterlimit="10" stroke-linecap="round" stroke-linejoin="round"/>
<path d="M352.601 15.8296C352.707 17.0623 353.476 18.0734 354.627 18.8858" stroke="#F48484" stroke-miterlimit="10" stroke-linecap="round" stroke-linejoin="round"/>
<path d="M351.449 13.9266C351.555 14.0856 351.81 14.1481 352.007 14.0572C352.205 13.972 352.283 13.7675 352.17 13.6085C352.064 13.4494 351.81 13.3869 351.612 13.4778C351.414 13.5687 351.344 13.7675 351.449 13.9266Z" fill="#FFE164"/>
<path d="M351.323 14.8411C351.428 15.0002 351.683 15.0627 351.88 14.9718C352.078 14.8866 352.156 14.6821 352.043 14.523C351.937 14.3639 351.683 14.3015 351.485 14.3924C351.287 14.4776 351.217 14.6821 351.323 14.8411Z" fill="#FFE164"/>
<path d="M350.193 14.5569C350.299 14.716 350.553 14.7785 350.751 14.6876C350.948 14.6024 351.026 14.3979 350.913 14.2388C350.807 14.0798 350.553 14.0173 350.355 14.1082C350.157 14.1934 350.087 14.3922 350.193 14.5569Z" fill="#FFE164"/>
<path d="M352.473 14.6763C352.579 14.8354 352.833 14.8979 353.031 14.807C353.229 14.7218 353.306 14.5173 353.193 14.3582C353.087 14.1992 352.833 14.1367 352.636 14.2276C352.438 14.3184 352.36 14.5173 352.473 14.6763Z" fill="#FFE164"/>
<path d="M352.007 15.6478C352.113 15.8068 352.367 15.8693 352.565 15.7784C352.763 15.6875 352.84 15.4887 352.727 15.3296C352.621 15.1706 352.367 15.1081 352.17 15.199C351.972 15.2842 351.901 15.4887 352.007 15.6478Z" fill="#FFE164"/>
<path d="M350.842 15.6876C350.948 15.8466 351.202 15.9091 351.4 15.8182C351.598 15.733 351.675 15.5285 351.562 15.3694C351.456 15.2104 351.202 15.1479 351.004 15.2388C350.807 15.324 350.736 15.5285 350.842 15.6876Z" fill="#FFE164"/>
<path d="M356.583 10.8079C355.072 11.2453 353.857 12.2905 353.412 13.5289" stroke="#F9BBBF" stroke-miterlimit="10" stroke-linecap="round" stroke-linejoin="round"/>
<path d="M350.115 15.1819C348.738 14.7615 347.185 14.716 345.772 15.0455" stroke="#F9BBBF" stroke-miterlimit="10" stroke-linecap="round" stroke-linejoin="round"/>
<path d="M349.141 10.0864C349.303 11.2225 349.875 12.3246 350.772 13.2108" stroke="#F9BBBF" stroke-miterlimit="10" stroke-linecap="round" stroke-linejoin="round"/>
<path d="M354.062 15.7613C355.771 15.6988 357.501 16.0226 358.998 16.6929" stroke="#F9BBBF" stroke-miterlimit="10" stroke-linecap="round" stroke-linejoin="round"/>
<path d="M351.477 16.7043C350.651 17.7553 350.418 19.0902 350.849 20.2774" stroke="#F9BBBF" stroke-miterlimit="10" stroke-linecap="round" stroke-linejoin="round"/>
<path d="M332.242 40.5629C332.242 40.5629 332.094 44.7211 329.305 44.1815C326.515 43.6418 327.087 40.5572 327.087 40.5572C327.892 40.5572 328.86 40.0801 329.291 39.5291C329.813 40.188 331.275 40.6254 332.242 40.5629Z" fill="#D23837"/>
<path d="M334.622 38.9267C334.135 39.6993 333.294 40.3866 332.242 40.5627C331.183 40.7388 329.94 40.2446 329.7 39.3982C329.368 40.1651 328.09 40.665 327.087 40.557C326.085 40.4491 325.244 39.722 325.181 38.9097" stroke="#353635" stroke-width="2" stroke-miterlimit="10" stroke-linecap="round" stroke-linejoin="round"/>
<path d="M329.75 36.3193L329.7 39.3982" stroke="#353635" stroke-width="2" stroke-miterlimit="10" stroke-linecap="round" stroke-linejoin="round"/>
<path d="M327.257 36.1035C327.264 37.1374 328.14 38.1031 329.721 38.0974C331.296 38.0917 332.977 37.1147 332.977 36.0808C332.97 35.0469 331.564 35.0128 329.99 35.0185C328.401 35.0242 327.25 35.064 327.257 36.1035Z" fill="#F69CA3"/>
<path d="M361.231 58.7862L357.905 57.6956L331.933 60.7915L332.639 63.166L354.508 64.0919L361.231 58.7862Z" fill="white"/>
<path d="M330.153 61.3822L332.179 90.0295C332.222 90.6771 332.702 91.2508 333.422 91.5348L335.83 92.4778C336.84 92.8755 337.977 93.0118 339.085 92.8755L363.822 89.8591C364.648 89.7568 365.248 89.166 365.199 88.49L363.087 59.9961C363.031 59.2292 362.169 58.6668 361.223 58.7861L336.84 61.7628C335.682 61.9048 334.495 61.7855 333.415 61.4163L333.09 61.3083C332.695 61.1777 332.772 60.7119 333.189 60.6607L357.89 57.7011L356.541 57.4398C356.202 57.3717 355.849 57.3603 355.51 57.4001L331.424 60.1211C330.661 60.2063 330.11 60.7573 330.153 61.3822Z" fill="#F05453"/>
<path d="M339.891 92.779L363.829 89.8592C364.655 89.7569 365.256 89.1661 365.206 88.4902L363.095 59.9962C363.038 59.2293 362.177 58.667 361.231 58.7863L337.066 61.7345C335.936 61.8708 335.131 62.6775 335.195 63.5921L337.236 91.0464C337.313 92.1428 338.549 92.9437 339.891 92.779Z" fill="#F26768"/>
<path d="M370.721 80.9178C371.646 76.362 369.909 70.4826 365.418 67.6309C364.747 67.2049 363.857 67.0742 363.031 67.2673C362.48 67.3923 361.258 68.5739 360.736 68.7784C359.472 69.2896 359.098 70.6132 359.938 71.5278C362.134 73.9137 363.426 76.8562 363.772 79.8158C363.928 81.111 364.005 82.6277 365.643 83.2128C366.477 83.5139 367.451 83.423 368.256 83.0822C369.379 82.605 370.509 81.9347 370.721 80.9178Z" fill="#00675E"/>
<path d="M367.945 67.9603C369.464 67.2957 371.314 67.1366 372.966 67.5286C374.625 67.9205 376.066 68.8635 376.892 70.0905" stroke="#EBEBEA" stroke-width="2" stroke-miterlimit="10" stroke-linecap="round" stroke-linejoin="round"/>
<path d="M338.259 70.5281C341.098 68.8466 344.311 68.1592 347.827 68.3126C348.929 68.3581 350.151 68.5512 350.56 69.5737C350.751 70.0452 350.673 70.5621 350.405 71.0109C349.903 71.8346 349.007 72.3231 348.039 72.7208C347.891 72.7833 347.94 72.9594 348.11 72.9594C350.136 72.965 352.516 74.2375 353.533 75.5611C354.733 77.1289 354.649 79.2137 353.575 80.8384C352.502 82.463 350.539 83.6446 348.385 84.2638C346.231 84.883 343.88 84.9795 341.606 84.8034C339.692 84.6557 337.779 84.3149 336.091 83.5764C334.403 82.8379 332.963 81.662 332.327 80.2021C331.579 78.4752 332.031 75.6974 333.118 74.0955C334.206 72.4992 336.43 71.613 338.259 70.5281Z" fill="white"/>
<path d="M362.345 69.9089C359.506 68.2275 356.293 67.5401 352.777 67.6935C351.675 67.7389 350.454 67.9321 350.044 68.9546C349.853 69.4261 349.931 69.943 350.199 70.3918C350.701 71.2155 351.598 71.704 352.565 72.1016C352.713 72.1641 352.664 72.3402 352.494 72.3402C350.468 72.3459 348.088 73.6183 347.071 74.9419C345.871 76.5098 345.955 78.5946 347.029 80.2192C348.102 81.8439 350.065 83.0254 352.219 83.6446C354.373 84.2638 356.724 84.3604 358.998 84.1843C360.912 84.0366 362.825 83.6957 364.513 82.9573C366.201 82.2188 367.641 81.0429 368.277 79.583C369.025 77.8561 368.573 75.0783 367.486 73.4763C366.391 71.8801 364.174 70.9939 362.345 69.9089Z" fill="white"/>
<path d="M333.394 69.3466C332.8 68.7842 331.946 68.4434 331.028 68.3639C327.038 68.006 325.407 67.7731 323.048 65.2338C321.382 63.4445 321.022 61.9391 319.751 59.9452C318.282 57.6446 315.563 55.8779 312.456 55.2076C308.601 54.3782 303.75 56.1335 301.631 58.8545C296.257 65.7451 296.843 75.493 303.411 81.7531C310.656 88.6607 321.735 89.1833 331.395 84.5763C334.495 83.0937 332.327 79.0661 332.341 76.1633C332.356 73.6582 335.434 71.2837 333.394 69.3466Z" fill="white"/>
<path d="M318.084 74.7886C318.338 72.221 320.725 69.8806 323.804 69.1819" stroke="#EBEBEA" stroke-width="2" stroke-miterlimit="10" stroke-linecap="round" stroke-linejoin="round"/>
<path d="M330.661 69.9431C327.328 73.698 325.654 79.5945 328.118 83.747C328.486 84.3662 329.213 84.7979 330.06 84.9229C330.625 85.0024 332.369 84.3832 332.948 84.3776C334.368 84.3662 335.427 83.3153 335.173 82.1962C334.516 79.2764 334.975 76.1748 336.289 73.3969C336.86 72.1813 337.623 70.7895 336.479 69.6818C335.893 69.1138 334.975 68.8468 334.057 68.8695C332.793 68.9036 331.409 69.1024 330.661 69.9431Z" fill="#00675E"/>
<path d="M349.98 73.4763C350.658 73.6183 351.357 73.766 351.908 74.1182C352.459 74.4704 352.812 75.0782 352.565 75.6065C353.377 75.7258 354.097 76.487 354.203 77.1517C354.309 77.8106 353.836 78.5037 353.08 78.7877C353.751 79.2251 353.659 80.3328 353.349 80.9804C353.038 81.628 352.41 82.1392 351.802 82.6278" stroke="#EBEBEA" stroke-width="2" stroke-miterlimit="10" stroke-linecap="round" stroke-linejoin="round"/>
<path d="M352.156 75.6462C350.299 76.7312 347.962 77.2652 345.674 77.1289" stroke="#EBEBEA" stroke-width="2" stroke-miterlimit="10" stroke-linecap="round" stroke-linejoin="round"/>
<path d="M353.081 78.782C353.081 78.782 350.284 80.2419 345.666 80.4748" stroke="#EBEBEA" stroke-width="2" stroke-miterlimit="10" stroke-linecap="round" stroke-linejoin="round"/>
<path d="M354.133 76.1518C355.778 76.2257 357.438 76.0836 359.033 75.7314" stroke="#EBEBEA" stroke-width="2" stroke-miterlimit="10" stroke-linecap="round" stroke-linejoin="round"/>
<path d="M353.632 80.3101C355.383 80.6396 357.247 80.5544 358.935 80.0715" stroke="#EBEBEA" stroke-width="2" stroke-miterlimit="10" stroke-linecap="round" stroke-linejoin="round"/>
<path d="M345.285 72.5789C346.02 72.6584 346.761 72.7322 347.495 72.8118" stroke="#EBEBEA" stroke-width="2" stroke-miterlimit="10" stroke-linecap="round" stroke-linejoin="round"/>
<path d="M352.692 72.2833C353.497 72.2321 354.295 72.181 355.1 72.1299" stroke="#EBEBEA" stroke-width="2" stroke-miterlimit="10" stroke-linecap="round" stroke-linejoin="round"/>
<path d="M306.63 96.5736C306.63 96.9883 306.214 97.3292 305.691 97.3292C305.176 97.3292 304.752 96.994 304.752 96.5736C304.752 96.159 305.169 95.8181 305.691 95.8181C306.214 95.8181 306.63 96.159 306.63 96.5736Z" fill="white"/>
<path d="M303.516 102.856C303.516 103.271 303.099 103.612 302.577 103.612C302.061 103.612 301.638 103.277 301.638 102.856C301.638 102.442 302.054 102.101 302.577 102.101C303.092 102.101 303.516 102.436 303.516 102.856Z" fill="white"/>
<path d="M313.353 101.754C313.353 102.169 312.936 102.51 312.414 102.51C311.898 102.51 311.475 102.175 311.475 101.754C311.475 101.34 311.891 100.999 312.414 100.999C312.929 100.999 313.353 101.334 313.353 101.754Z" fill="white"/>
<path d="M313.713 109.338C313.713 109.753 313.297 110.094 312.774 110.094C312.259 110.094 311.835 109.758 311.835 109.338C311.835 108.918 312.252 108.583 312.774 108.583C313.29 108.583 313.713 108.918 313.713 109.338Z" fill="white"/>
<path d="M323.33 100.493C323.33 100.908 322.914 101.249 322.391 101.249C321.876 101.249 321.452 100.914 321.452 100.493C321.452 100.073 321.869 99.7378 322.391 99.7378C322.914 99.7435 323.33 100.079 323.33 100.493Z" fill="white"/>
<path d="M325.251 108.253C325.251 108.668 324.835 109.009 324.312 109.009C323.797 109.009 323.373 108.673 323.373 108.253C323.373 107.838 323.79 107.498 324.312 107.498C324.835 107.498 325.251 107.838 325.251 108.253Z" fill="white"/>
<path d="M335.258 112.121C335.258 112.536 334.842 112.877 334.319 112.877C333.797 112.877 333.38 112.542 333.38 112.121C333.38 111.701 333.797 111.366 334.319 111.366C334.842 111.366 335.258 111.707 335.258 112.121Z" fill="white"/>
<path d="M334.488 102.993C334.488 103.408 334.071 103.748 333.549 103.748C333.033 103.748 332.609 103.413 332.609 102.993C332.609 102.578 333.026 102.237 333.549 102.237C334.071 102.237 334.488 102.572 334.488 102.993Z" fill="white"/>
<path d="M333.337 94.6366C333.337 95.0513 332.921 95.3921 332.398 95.3921C331.883 95.3921 331.459 95.057 331.459 94.6366C331.459 94.2219 331.876 93.8811 332.398 93.8811C332.914 93.8811 333.337 94.2163 333.337 94.6366Z" fill="white"/>
<path d="M342.764 97.2668C342.764 97.6814 342.347 98.0223 341.825 98.0223C341.309 98.0223 340.886 97.6871 340.886 97.2668C340.886 96.8521 341.302 96.5112 341.825 96.5112C342.34 96.5112 342.764 96.8464 342.764 97.2668Z" fill="white"/>
<path d="M351.612 93.3981C351.612 93.8128 351.195 94.1536 350.673 94.1536C350.157 94.1536 349.733 93.8185 349.733 93.3981C349.733 92.9834 350.15 92.6426 350.673 92.6426C351.188 92.6426 351.612 92.9777 351.612 93.3981Z" fill="white"/>
<path d="M344.515 106.242C344.515 106.657 344.098 106.998 343.576 106.998C343.053 106.998 342.637 106.662 342.637 106.242C342.637 105.822 343.053 105.487 343.576 105.487C344.098 105.487 344.515 105.822 344.515 106.242Z" fill="white"/>
<path d="M352.191 111.656C352.191 112.07 351.774 112.411 351.252 112.411C350.729 112.411 350.312 112.076 350.312 111.656C350.312 111.241 350.729 110.9 351.252 110.9C351.774 110.9 352.191 111.241 352.191 111.656Z" fill="white"/>
<path d="M355.073 102.663C355.073 103.078 354.656 103.419 354.134 103.419C353.618 103.419 353.194 103.084 353.194 102.663C353.194 102.249 353.611 101.908 354.134 101.908C354.656 101.908 355.073 102.249 355.073 102.663Z" fill="white"/>
<path d="M363.151 109.957C363.151 110.372 362.734 110.713 362.212 110.713C361.689 110.713 361.272 110.378 361.272 109.957C361.272 109.537 361.689 109.202 362.212 109.202C362.734 109.202 363.151 109.537 363.151 109.957Z" fill="white"/>
<path d="M367.197 102.197C367.197 102.612 366.78 102.953 366.258 102.953C365.742 102.953 365.318 102.618 365.318 102.197C365.318 101.777 365.735 101.442 366.258 101.442C366.773 101.442 367.197 101.783 367.197 102.197Z" fill="white"/>
<path d="M374.887 102.527C374.887 102.942 374.471 103.283 373.948 103.283C373.432 103.283 373.009 102.947 373.009 102.527C373.009 102.112 373.425 101.771 373.948 101.771C374.471 101.771 374.887 102.112 374.887 102.527Z" fill="white"/>
<path d="M362.381 94.9433C362.381 95.358 361.965 95.6988 361.442 95.6988C360.927 95.6988 360.503 95.3636 360.503 94.9433C360.503 94.5229 360.92 94.1877 361.442 94.1877C361.965 94.1877 362.381 94.5286 362.381 94.9433Z" fill="white"/>
</g>
<defs>
<clipPath id="clip0_496_1409">
<rect width="120" height="195" fill="white"/>
</clipPath>
<clipPath id="clip1_496_1409">
<rect width="103" height="184" fill="white" transform="translate(181 16)"/>
</clipPath>
<clipPath id="clip2_496_1409">
<rect width="88" height="160" fill="white" transform="translate(294)"/>
</clipPath>
</defs>
</svg>
