<svg width="324" height="182" viewBox="0 0 324 182" fill="none" xmlns="http://www.w3.org/2000/svg">
<mask id="mask0_317_2341" style="mask-type:alpha" maskUnits="userSpaceOnUse" x="-40" y="0" width="364" height="182">
<rect x="-40" width="364" height="182" fill="#D9D9D9"/>
</mask>
<g mask="url(#mask0_317_2341)">
<path d="M220.532 220.648C226.432 204.567 223.249 185.629 212.389 172.209C201.538 158.788 179.282 147.164 161.827 148.952C161.449 138.286 156.103 127.876 147.565 121.17C139.017 114.472 127.92 111.402 117.113 113.301C122.108 103.635 120.314 91.0528 112.813 83.0723C105.312 75.0918 91.9904 71.6619 81.6494 75.6393C94.7428 59.55 89.4931 38.4056 71.2117 29.2106C56.7114 21.9144 35.5018 19.1516 22.9889 31.597C18.7153 35.8481 16.2883 41.5106 15.2683 47.3099C15.1452 48.0284 15.5233 56.4023 16.4114 56.83C12.0147 54.7002 3.37086 55.4101 1.42752 59.7895C-0.243217 55.4187 -6.25788 53.246 -10.4611 55.4871L-65.9121 187.537L220.532 220.648Z" fill="white"/>
<path d="M199.947 203.147C201.301 200.307 200.175 196.92 198.531 194.226C193.316 185.664 182.043 180.249 171.878 181.404C171.315 174.347 166.857 167.701 160.447 164.357C154.036 161.012 145.349 161.235 139 164.682C142.385 157.463 139.158 147.968 132.027 144.119C124.895 140.279 115.328 141.912 110.835 148.533C108.381 137.199 97.416 126.935 85.5098 126.696C88.7281 122.727 89.0799 116.782 86.3627 112.471C83.6456 108.16 79.3368 103.969 74.2367 104.952C78.4927 100.085 78.3871 92.1478 73.9993 87.392C69.6026 82.6362 62.1634 80.7972 56.7379 84.3982C57.925 76.8112 52.4907 68.9762 45.0163 66.5127C37.5419 64.0493 28.7925 66.6753 23.4286 72.3035C18.0558 77.9317 15.6377 86.2971 16.8599 93.8841C12.6743 91.9938 7.62689 91.9938 3.43246 93.867C-0.761986 95.7403 -4.49037 98.8024 -5.73903 103.131C-7.31305 99.0676 -10.5578 95.6462 -14.594 93.79C-18.6301 91.9425 -23.4137 91.6859 -27.6345 93.0887C-27.9423 93.5676 -28.2764 94.9362 -28.5842 95.4067L-66 184.475C-15.2007 204.661 45.5967 190.163 99.7902 198.528C119.769 201.608 139.747 205.192 159.972 205.799C173.312 206.192 186.862 205.705 199.947 203.147Z" fill="#D9F9FF"/>
<path d="M121.202 185.15C120.156 176.537 115.003 168.488 107.52 163.775C100.037 159.062 90.6015 156.71 82.0984 159.31C82.8194 153.93 80.2693 148.259 75.7232 145.111C71.177 141.964 65.004 140.775 60.0094 143.204C63.3157 139.603 63.2893 134.026 61.4779 129.527C57.8111 120.426 47.1975 114.507 37.2698 116.038C27.342 117.569 17.9067 126.559 17.3088 136.318C13.0176 130.16 4.8398 126.815 -2.68732 128.141C-10.2145 129.467 -16.7391 135.258 -18.5418 142.485C-20.617 137.541 -26.9219 135.215 -32.3034 136.241C-37.6849 137.276 -42.1608 140.963 -45.5814 145.137L-60.8467 178.667C-4.75377 200.957 61.4164 175.75 121.202 185.15Z" fill="white"/>
<path d="M41.0415 169.421C40.0214 163.211 35.572 157.642 29.6452 155.136C23.7185 152.63 17.5104 153.862 12.1464 157.377C8.47081 150.047 0.292973 145.069 -8.08711 145.052C-16.476 145.034 -23.581 150.363 -27.2918 157.677C-30.2464 154.862 -34.3705 153.237 -38.5034 153.246C-42.6451 153.263 -46.7516 154.922 -49.6798 157.762C-50.0755 158.147 -49.9963 158.352 -50.2074 158.857L-59.502 180.994C-31.6006 192.079 -0.032383 182.585 29.9178 179.274C32.6878 178.966 35.5896 178.59 37.8319 176.982C40.0566 175.382 41.4811 172.098 41.0415 169.421Z" fill="#D9F9FF"/>
</g>
</svg>
