<?xml version="1.0" encoding="utf-8"?>
<!-- Generator: Adobe Illustrator 27.0.0, SVG Export Plug-In . SVG Version: 6.00 Build 0)  -->
<svg version="1.1" id="Layer_1" xmlns="http://www.w3.org/2000/svg" xmlns:xlink="http://www.w3.org/1999/xlink" x="0px" y="0px"
	 viewBox="0 0 166.9 51.6" style="enable-background:new 0 0 166.9 51.6;" xml:space="preserve">
<style type="text/css">
	.st0{fill:#6A92FE;}
</style>
<g>
	<g>
		<g>
			<path class="st0" d="M11.7,32.7c-1.3,0-2.4-0.4-3.5-1.1c-1-0.7-1.7-1.8-2-3.3l-6-21C0.1,7.1,0.1,6.8,0,6.6C0,6.4,0,6.2,0,6
				c0-1.2,0.4-2.2,1.3-3c0.9-0.8,1.9-1.2,3.2-1.2c2.2,0,3.5,1,4,3l3.1,14.7c0.2,0.7,0.5,1.1,0.9,1.1c0.5,0,0.8-0.3,1-1l4.3-12.7
				c0.4-1.1,1-2,1.9-2.5c0.9-0.5,1.8-0.8,2.7-0.8c0.9,0,1.9,0.3,2.8,0.8c0.9,0.5,1.5,1.4,1.8,2.5l4.2,12.7c0.2,0.7,0.5,1,0.9,1
				s0.7-0.4,0.9-1.1L36,4.7c0.5-2,1.8-3,4-3c1.3,0,2.3,0.4,3.2,1.2c0.9,0.8,1.3,1.9,1.3,3c0,0.2,0,0.4,0,0.6c0,0.2-0.1,0.4-0.2,0.7
				l-6,21c-0.4,1.5-1.1,2.6-2.1,3.3c-1,0.7-2.2,1.1-3.4,1.1c-1.1,0-2.2-0.4-3.2-1c-1-0.7-1.8-1.8-2.3-3.2l-4-11.8
				c-0.2-0.7-0.5-1.1-0.9-1.1c-0.5,0-0.8,0.4-1,1.1l-4,11.8c-0.5,1.5-1.2,2.5-2.2,3.2C14,32.4,12.9,32.7,11.7,32.7z"/>
			<path class="st0" d="M61.5,32.7c-4.5,0-8.1-1.4-10.9-4.2c-2.8-2.8-4.1-6.6-4.1-11.4c0-4.7,1.4-8.5,4-11.2
				c2.7-2.8,6.2-4.1,10.7-4.1c3.1,0,5.9,1.1,8.2,3.3c0.3-0.8,0.8-1.5,1.5-2c0.7-0.5,1.6-0.8,2.6-0.8c1.3,0,2.4,0.4,3.2,1.1
				C77.6,4.1,78,5.1,78,6.1v22.7c0,1.1-0.4,2.1-1.2,2.8c-0.8,0.7-1.9,1.1-3.2,1.1c-2.2,0-3.6-1-4.1-2.9
				C67.3,31.8,64.6,32.7,61.5,32.7z M62.2,24.6c2.1,0,3.8-0.7,5.1-2.1c1.3-1.4,1.9-3.2,1.9-5.4c0-2.2-0.6-4-1.9-5.3
				c-1.3-1.3-3-2-5.1-2c-2.1,0-3.8,0.7-5.1,2c-1.3,1.3-1.9,3.1-1.9,5.3c0,2.1,0.6,3.9,1.9,5.4C58.4,23.9,60.1,24.6,62.2,24.6z"/>
			<path class="st0" d="M81.5,5.7c0-1.3,0.5-2.3,1.4-3c0.9-0.7,2-1,3.2-1c0.9,0,1.8,0.2,2.5,0.7s1.2,1.2,1.5,2l6.2,15.1
				c0.3,0.9,0.8,1.3,1.4,1.3c0.6,0,1-0.4,1.3-1.3l5.4-15.1c0.3-0.9,0.9-1.6,1.7-2.1c0.8-0.5,1.6-0.7,2.5-0.7c1.1,0,2.2,0.4,3.1,1.1
				c1,0.7,1.5,1.7,1.5,2.9c0,0.7-0.1,1.3-0.4,1.9L97,43.6c-0.5,1-1,1.7-1.8,2.1c-0.7,0.4-1.4,0.7-2.2,0.7c-1.2,0-2.3-0.4-3.2-1.2
				c-1-0.8-1.4-1.8-1.4-3c0-0.6,0.1-1.1,0.4-1.6l5.4-9.6c-1.1-0.3-2-1.2-2.7-2.5l-9.7-21C81.6,6.9,81.5,6.3,81.5,5.7z"/>
			<path class="st0" d="M129.8,32.7c-2.9,0-5.5-0.7-7.9-2c-2.4-1.3-4.3-3.2-5.8-5.5c-1.4-2.4-2.2-5.1-2.2-8.1c0-3.1,0.7-5.8,2.2-8
				c1.4-2.3,3.3-4.1,5.8-5.4c2.4-1.3,5-2,7.9-2c2.9,0,5.6,0.6,8,2c2.4,1.3,4.2,3.1,5.7,5.4c1.4,2.3,2.1,5,2.1,8c0,3-0.7,5.7-2.1,8.1
				c-1.4,2.4-3.3,4.2-5.7,5.5C135.4,32.1,132.7,32.7,129.8,32.7z M129.8,24.6c2.1,0,3.8-0.7,5-2.1c1.3-1.4,2-3.2,2-5.4
				c0-2.2-0.6-4-2-5.3c-1.3-1.3-3-2-5-2c-2,0-3.7,0.7-5,2c-1.4,1.3-2,3.1-2,5.3c0,2.1,0.7,3.9,2,5.4
				C126.1,23.9,127.8,24.6,129.8,24.6z"/>
		</g>
		<g>
			<path class="st0" d="M11.9,47.3c-0.7,0-1.3-0.1-1.8-0.3c-0.5-0.2-1-0.5-1.4-0.8v4.5c0,0.3-0.1,0.6-0.4,0.7s-0.5,0.3-0.8,0.3
				c-0.3,0-0.6-0.1-0.8-0.3S6.3,51,6.3,50.6v-12c0-0.4,0.1-0.6,0.4-0.8s0.5-0.3,0.8-0.3c0.3,0,0.6,0.1,0.8,0.2
				c0.2,0.2,0.4,0.4,0.4,0.7c0.4-0.3,0.8-0.6,1.4-0.8c0.5-0.2,1.1-0.3,1.8-0.3c1.1,0,2,0.2,2.8,0.6c0.8,0.4,1.4,1,1.9,1.7
				s0.7,1.6,0.7,2.5c0,1-0.2,1.8-0.7,2.6s-1.1,1.4-1.9,1.8C13.9,47,12.9,47.3,11.9,47.3z M11.7,45.3c0.9,0,1.7-0.3,2.3-0.8
				c0.6-0.6,0.9-1.3,0.9-2.2c0-0.9-0.3-1.6-0.9-2.1c-0.6-0.5-1.3-0.8-2.3-0.8c-0.9,0-1.6,0.3-2.2,0.8c-0.5,0.5-0.8,1.2-0.8,2.1
				c0,0.9,0.3,1.6,0.8,2.2C10,45,10.7,45.3,11.7,45.3z"/>
			<path class="st0" d="M24.6,47.3c-1.8,0-3.2-0.5-4.2-1.4c-1-0.9-1.5-2.2-1.5-3.8c0-1.4,0.5-2.5,1.5-3.4c1-0.9,2.3-1.3,3.9-1.3
				c1.6,0,2.8,0.4,3.7,1.2c0.9,0.8,1.4,1.8,1.4,3c0,0.5-0.1,0.8-0.4,1.1C28.8,42.9,28.4,43,28,43h-6.3c-0.2,0-0.3,0.1-0.3,0.4
				c0.2,0.6,0.6,1.1,1.2,1.4s1.3,0.5,2,0.5c0.6,0,1.1-0.1,1.6-0.2c0.5-0.1,1-0.3,1.3-0.6c0.1-0.1,0.3-0.1,0.5-0.1
				c0.3,0,0.5,0.1,0.7,0.3c0.2,0.2,0.3,0.4,0.3,0.7c0,0.1,0,0.3-0.1,0.4c0,0.1-0.2,0.3-0.3,0.4c-0.6,0.4-1.3,0.7-2,0.8
				C26,47.2,25.3,47.3,24.6,47.3z M26.7,41.3c0.1,0,0.2-0.1,0.2-0.2c0-0.5-0.2-0.9-0.7-1.3c-0.5-0.4-1.1-0.6-1.8-0.6
				c-0.6,0-1.2,0.2-1.8,0.5c-0.6,0.3-0.9,0.7-1,1.2v0c0,0.1,0,0.2,0,0.2c0,0.1,0.1,0.1,0.3,0.1L26.7,41.3z"/>
			<path class="st0" d="M35.5,47.3c-0.9,0-1.7-0.3-2.3-0.8c-0.6-0.5-0.9-1.3-0.9-2.3V40c0-0.2-0.1-0.3-0.4-0.3h-0.6
				c-0.3,0-0.6-0.1-0.8-0.3c-0.2-0.2-0.3-0.4-0.3-0.7c0-0.3,0.1-0.6,0.3-0.7s0.5-0.3,0.8-0.3H32c0.2,0,0.4-0.1,0.4-0.3v-2.7
				c0-0.3,0.1-0.5,0.3-0.7c0.2-0.2,0.5-0.3,0.8-0.3c0.4,0,0.7,0.1,0.9,0.3c0.2,0.2,0.3,0.4,0.3,0.7v2.7c0,0.2,0.1,0.3,0.4,0.3H37
				c0.3,0,0.5,0.1,0.8,0.3c0.2,0.2,0.3,0.4,0.3,0.7c0,0.3-0.1,0.5-0.3,0.7c-0.2,0.2-0.5,0.3-0.8,0.3h-1.9c-0.2,0-0.4,0.1-0.4,0.3
				v3.8c0,0.9,0.4,1.4,1.2,1.4c0.2,0,0.5,0,0.8-0.1c0.3-0.1,0.4-0.1,0.5-0.1c0.3,0,0.6,0.1,0.8,0.3s0.3,0.4,0.3,0.7
				c0,0.2-0.1,0.4-0.2,0.6c-0.1,0.2-0.3,0.3-0.6,0.4s-0.6,0.2-1,0.2C36.2,47.2,35.8,47.3,35.5,47.3z"/>
			<path class="st0" d="M44.8,47.3c-1.1,0-2-0.2-2.9-0.6c-0.9-0.4-1.5-1-2-1.8c-0.5-0.8-0.7-1.6-0.7-2.6c0-0.9,0.2-1.8,0.7-2.5
				c0.5-0.7,1.1-1.3,2-1.7c0.9-0.4,1.8-0.6,2.9-0.6c1.1,0,2,0.2,2.8,0.6c0.8,0.4,1.5,1,2,1.7c0.5,0.7,0.7,1.6,0.7,2.5
				c0,1-0.2,1.8-0.7,2.6c-0.5,0.8-1.2,1.4-2,1.8C46.8,47,45.8,47.3,44.8,47.3z M44.8,45.3c0.9,0,1.7-0.3,2.3-0.8s0.9-1.3,0.9-2.2
				c0-0.9-0.3-1.6-0.9-2.1s-1.3-0.8-2.3-0.8c-1,0-1.7,0.3-2.3,0.8c-0.6,0.5-0.8,1.2-0.8,2.1c0,0.9,0.3,1.6,0.8,2.2
				C43.1,45,43.8,45.3,44.8,45.3z"/>
			<path class="st0" d="M57.9,47.3c-0.7,0-1.3-0.1-1.8-0.3c-0.5-0.2-1-0.5-1.4-0.8v4.5c0,0.3-0.1,0.6-0.4,0.7
				c-0.3,0.2-0.5,0.3-0.8,0.3s-0.6-0.1-0.8-0.3s-0.4-0.4-0.4-0.7v-12c0-0.4,0.1-0.6,0.4-0.8s0.5-0.3,0.8-0.3c0.3,0,0.6,0.1,0.8,0.2
				s0.4,0.4,0.4,0.7c0.4-0.3,0.8-0.6,1.4-0.8c0.5-0.2,1.1-0.3,1.8-0.3c1.1,0,2,0.2,2.8,0.6c0.8,0.4,1.4,1,1.9,1.7
				c0.5,0.7,0.7,1.6,0.7,2.5c0,1-0.2,1.8-0.7,2.6c-0.5,0.8-1.1,1.4-1.9,1.8C59.9,47,59,47.3,57.9,47.3z M57.7,45.3
				c0.9,0,1.7-0.3,2.3-0.8s0.9-1.3,0.9-2.2c0-0.9-0.3-1.6-0.9-2.1s-1.3-0.8-2.3-0.8c-0.9,0-1.6,0.3-2.2,0.8
				c-0.5,0.5-0.8,1.2-0.8,2.1c0,0.9,0.3,1.6,0.8,2.2C56.1,45,56.8,45.3,57.7,45.3z"/>
			<path class="st0" d="M66.6,35.6c-0.5,0-0.8-0.1-1.2-0.4c-0.3-0.3-0.5-0.6-0.5-1c0-0.4,0.2-0.7,0.5-1c0.3-0.3,0.7-0.4,1.2-0.4
				c0.4,0,0.8,0.1,1.1,0.4c0.3,0.3,0.5,0.6,0.5,1c0,0.4-0.2,0.7-0.5,1C67.4,35.5,67,35.6,66.6,35.6z M66.6,47.3
				c-0.3,0-0.6-0.1-0.8-0.3c-0.3-0.2-0.4-0.4-0.4-0.7v-7.8c0-0.4,0.1-0.6,0.4-0.8s0.5-0.3,0.8-0.3c0.3,0,0.6,0.1,0.8,0.3
				s0.4,0.5,0.4,0.8v7.8c0,0.3-0.1,0.6-0.4,0.7C67.1,47.2,66.9,47.3,66.6,47.3z"/>
			<path class="st0" d="M75.2,47.3c-1,0-2-0.2-2.8-0.6c-0.8-0.4-1.5-1-1.9-1.8s-0.7-1.6-0.7-2.6c0-0.9,0.2-1.8,0.7-2.5
				s1.1-1.3,1.9-1.7c0.8-0.4,1.7-0.6,2.8-0.6c0.7,0,1.3,0.1,1.8,0.3c0.5,0.2,1,0.5,1.4,0.8c0-0.3,0.2-0.5,0.4-0.7s0.5-0.2,0.8-0.2
				c0.3,0,0.6,0.1,0.8,0.3c0.3,0.2,0.4,0.5,0.4,0.8v7.6c0,0.3-0.1,0.6-0.4,0.7c-0.3,0.2-0.5,0.3-0.8,0.3c-0.3,0-0.6-0.1-0.8-0.3
				c-0.3-0.2-0.4-0.4-0.4-0.7v-0.1c-0.4,0.3-0.8,0.6-1.4,0.8C76.4,47.2,75.8,47.3,75.2,47.3z M75.4,45.3c0.9,0,1.6-0.3,2.2-0.8
				c0.5-0.6,0.8-1.3,0.8-2.2c0-0.9-0.3-1.6-0.8-2.1c-0.5-0.5-1.2-0.8-2.2-0.8c-0.9,0-1.7,0.3-2.3,0.8c-0.6,0.5-0.9,1.2-0.9,2.1
				c0,0.9,0.3,1.6,0.9,2.2C73.7,45,74.4,45.3,75.4,45.3z"/>
		</g>
	</g>
	<g>
		<path class="st0" d="M154.8,2.3c1-1.8,2.9-2.7,4.1-2.1c1.2,0.7,1.4,2.7,0.4,4.6c-1,1.8-2.9,2.7-4.1,2.1
			C154,6.2,153.8,4.1,154.8,2.3z"/>
		<path class="st0" d="M148.5,4.3c0.7-1.9,2.4-3.1,3.7-2.6c1.3,0.5,1.8,2.5,1.1,4.4c-0.7,1.9-2.4,3.1-3.7,2.6
			C148.3,8.2,147.8,6.3,148.5,4.3z"/>
		<path class="st0" d="M159.4,16c-1.3,2.9-3.8,1.5-6.4,0c-2.6-1.5-5-3.1-3.4-5.5c0.7-1,2.1-0.9,3.4-1.5c1.6-0.6,3.1-1.7,4.4-1
			c1.4,0.7,1.2,2.8,1.5,4.7C159,14,159.8,15,159.4,16z"/>
		<path class="st0" d="M159.9,5.1c1-1.8,2.9-2.7,4.1-2.1c1.2,0.7,1.4,2.7,0.4,4.6c-1,1.8-2.9,2.7-4.1,2.1C159,9,158.8,6.9,159.9,5.1
			z"/>
		<path class="st0" d="M165.3,14.6c-1.5,1.3-3.5,1.4-4.4,0.3c-0.9-1.1-0.4-3,1.2-4.3c1.5-1.3,3.5-1.4,4.4-0.3
			C167.4,11.4,166.9,13.3,165.3,14.6z"/>
	</g>
</g>
</svg>
